<svg xmlns="http://www.w3.org/2000/svg" viewBox="0 0 64 64" fill="none" role="img" aria-label="Dandii">
  <title>Dandii</title>
  <rect width="64" height="64" rx="14" fill="#15803D"/>
  <path fill="#fff" d="M10 30.2c0-2.3 1.1-4.4 2.9-5.7L18.5 20c1.3-.9 2.8-1.4 4.4-1.4H41c2.2 0 4.2 1.1 5.4 2.9l3.4 5.3c.8 1.3 1.3 2.7 1.3 4.3V42c0 2-1.6 3.6-3.6 3.6H13.6C11.6 45.6 10 44 10 42V30.2Z"/>
  <rect x="21" y="12.5" width="20" height="5" rx="1.4" fill="#fff" fill-opacity="0.95"/>
  <path fill="#15803D" d="M15.2 26.5h9.2c.7 0 1.3.6 1.3 1.3v6.2c0 .7-.6 1.3-1.3 1.3H14c-.5 0-1-.4-.9-1l1.1-6.5c.1-.8.8-1.3 1.5-1.3Z"/>
  <rect x="28" y="26.5" width="8" height="8.8" rx="1.3" fill="#15803D"/>
  <rect x="38.5" y="26.5" width="8" height="8.8" rx="1.3" fill="#15803D"/>
  <path stroke="#15803D" stroke-opacity="0.45" stroke-width="1.2" stroke-linecap="round" d="M28 37.2h18.5"/>
  <circle cx="20.5" cy="47.5" r="4.6" fill="#fff"/>
  <circle cx="20.5" cy="47.5" r="2" fill="#15803D"/>
  <circle cx="44.5" cy="47.5" r="4.6" fill="#fff"/>
  <circle cx="44.5" cy="47.5" r="2" fill="#15803D"/>
  <circle cx="13.2" cy="35.2" r="1.5" fill="#15803D" fill-opacity="0.35"/>
</svg>
